<svg id="Capa_1" data-name="Capa 1" xmlns="http://www.w3.org/2000/svg" viewBox="0 0 373.6 327.2"><defs><style>.cls-1{fill:#2e2d2d;}</style></defs><title>comm</title><path class="cls-1" d="M327.6,67.6c-6.8-25.6-30.4-44.4-57.2-44.4H59.2A59.32,59.32,0,0,0,0,82.4v98A59.5,59.5,0,0,0,46,238a58.83,58.83,0,0,0,57.2,44.4H112v59.2a9.6,9.6,0,0,0,4.8,8,11.83,11.83,0,0,0,4,.8,8.42,8.42,0,0,0,5.2-2l85.6-66H314.4a59.32,59.32,0,0,0,59.2-59.2v-98A59.16,59.16,0,0,0,327.6,67.6ZM44,125.2v94a41.43,41.43,0,0,1-26.4-38.8v-98A41.83,41.83,0,0,1,59.2,40.8H270.8a41.71,41.71,0,0,1,38,25.2H103.2A59.32,59.32,0,0,0,44,125.2Zm312.4,98H356a41.83,41.83,0,0,1-41.6,41.6H208.8a7.6,7.6,0,0,0-5.2,2l-74,57.2V273.6a8.88,8.88,0,0,0-8.8-8.8H103.2a41.83,41.83,0,0,1-41.6-41.6v-98a41.83,41.83,0,0,1,41.6-41.6H314.8a41.83,41.83,0,0,1,41.6,41.6v98Z" transform="translate(0 -23.2)"/><path class="cls-1" d="M298.8,122.4h-180a8.8,8.8,0,1,0,0,17.6h180a8.8,8.8,0,0,0,0-17.6Z" transform="translate(0 -23.2)"/><path class="cls-1" d="M298.8,160.8h-180a8.8,8.8,0,1,0,0,17.6h180a8.8,8.8,0,0,0,0-17.6Z" transform="translate(0 -23.2)"/><path class="cls-1" d="M298.8,199.6h-180a8.8,8.8,0,1,0,0,17.6h180a8.88,8.88,0,0,0,8.8-8.8A8.63,8.63,0,0,0,298.8,199.6Z" transform="translate(0 -23.2)"/></svg>