<svg id="Capa_1" data-name="Capa 1" xmlns="http://www.w3.org/2000/svg" viewBox="0 0 488.85 291.4"><defs><style>.cls-1{fill:#2e2d2d;}</style></defs><title>eye</title><path class="cls-1" d="M244.43,98.72c-93.4,0-178.1,51.1-240.6,134.1a19.35,19.35,0,0,0,0,23.1c62.5,83.1,147.2,134.2,240.6,134.2S422.53,339,485,256a19.35,19.35,0,0,0,0-23.1C422.52,149.82,337.83,98.72,244.43,98.72Zm6.7,248.3a102.88,102.88,0,0,1-109.3-109.3c3.2-51.2,44.7-92.7,95.9-95.9A102.88,102.88,0,0,1,347,251.12C343.73,302.23,302.23,343.73,251.13,347Zm-3.1-47.4a55.36,55.36,0,1,1,51.7-51.7A55.27,55.27,0,0,1,248,299.63Z" transform="translate(0 -98.72)"/></svg>