<?xml version="1.0" encoding="utf-8"?>
<!-- Generator: Adobe Illustrator 21.0.0, SVG Export Plug-In . SVG Version: 6.00 Build 0)  -->
<svg version="1.1" id="Capa_1" xmlns="http://www.w3.org/2000/svg" xmlns:xlink="http://www.w3.org/1999/xlink" x="0px" y="0px"
	 viewBox="0 0 14.2 14.2" style="enable-background:new 0 0 14.2 14.2;" xml:space="preserve">
<style type="text/css">
	.st0{fill:#CACACA;}
</style>
<g>
	<path class="st0" d="M13.3,0H0.9C0.4,0,0,0.4,0,0.9v12.4c0,0.5,0.4,0.9,0.9,0.9h12.4c0.5,0,0.9-0.4,0.9-0.9V0.9
		C14.2,0.4,13.8,0,13.3,0z M11.8,8.6c0.3,0.3,0.8,0.7,0.7,1.2c-0.1,0.4-0.7,0.3-1.3,0.3c-0.7,0-1.1,0-1.5-0.3
		C9.5,9.6,9.4,9.4,9.2,9.2C9,9.1,8.8,8.7,8.5,8.7C8,8.8,8.1,9.5,7.9,10c-2.9,0.5-4.1-1.3-5.1-3.1C2.4,6.1,1.6,4.3,1.6,4.3l2,0
		c0,0,0.7,1.2,0.8,1.5C4.7,6,4.8,6.2,5,6.5C5.1,6.7,5.4,7,5.6,7C6,7,6.1,5.4,5.8,4.9C5.7,4.7,5.5,4.6,5.3,4.5C5.3,4,7.6,3.9,7.9,4.3
		C8.4,4.9,7.6,6.5,8.3,7c1-0.5,1.9-2.7,1.9-2.7l2.4,0c0,0-0.4,1.2-0.8,1.7c-0.2,0.3-1,1-1,1.5C10.8,7.9,11.4,8.3,11.8,8.6z"/>
</g>
</svg>
