<svg id="Capa_1" data-name="Capa 1" xmlns="http://www.w3.org/2000/svg" viewBox="0 0 512 490.67"><defs><style>.cls-1{fill:#2e2d2d;}</style></defs><title>like</title><path class="cls-1" d="M53.33,224A53.41,53.41,0,0,0,0,277.33V448a53.41,53.41,0,0,0,53.33,53.33h64a53,53,0,0,0,32-10.8V224Z" transform="translate(0 -10.67)"/><path class="cls-1" d="M512,304a47.31,47.31,0,0,0-13.89-33.58,53,53,0,0,0,13.65-40.73c-2.5-27.12-26.92-48.36-55.64-48.36H324.35c6.53-19.82,17-56.15,17-85.33,0-46.27-39.32-85.33-64-85.33-22.17,0-38,12.48-38.68,13a10.72,10.72,0,0,0-4,8.34v72.34l-61.44,133.1-2.56,1.3V467.39C188,475.58,210,480,224,480H419.82c23.23,0,43.56-15.66,48.34-37.27a48,48,0,0,0-3.86-32,47.78,47.78,0,0,0,21.36-64A47.76,47.76,0,0,0,512,304Z" transform="translate(0 -10.67)"/></svg>