<svg id="Layer_1" data-name="Layer 1" xmlns="http://www.w3.org/2000/svg" viewBox="0 0 341.33 512"><defs><style>.cls-1{fill:#2e2d2d;}</style></defs><title>download</title><path class="cls-1" d="M240.91,420.42h0c.49.49,1,1,1.55,1.4.25.2.51.38.76.57s.6.46.91.67.62.38.93.57.57.35.86.51.65.31,1,.47.61.3.92.43.64.24,1,.35.67.25,1,.35.65.17,1,.25.7.19,1.06.26.75.12,1.13.17.62.1.93.14a21.47,21.47,0,0,0,4.21,0c.32,0,.62-.09.93-.14s.76-.1,1.13-.17.7-.17,1.06-.26.65-.15,1-.25.68-.23,1-.35.64-.22,1-.35.62-.28.92-.43.65-.3,1-.47.57-.34.86-.51.63-.36.93-.57.61-.45.92-.67.52-.37.76-.57c.54-.44,1.06-.91,1.55-1.4h0L420.42,271.09a21.33,21.33,0,1,0-30.17-30.17L277.33,353.83V21.33a21.33,21.33,0,0,0-42.67,0v332.5L121.75,240.91a21.33,21.33,0,1,0-30.17,30.17Z" transform="translate(-85.33)"/><path class="cls-1" d="M405.33,469.33H106.67a21.33,21.33,0,0,0,0,42.67H405.33a21.33,21.33,0,0,0,0-42.67Z" transform="translate(-85.33)"/></svg>