<svg id="Capa_1" data-name="Capa 1" xmlns="http://www.w3.org/2000/svg" viewBox="0 0 512 469.33"><defs><style>.cls-1{fill:#2e2d2d;}</style></defs><title>like</title><path class="cls-1" d="M378.67,21.33C321.88,21.33,275,74.08,256,99c-19-24.9-65.87-77.65-122.67-77.65C59.81,21.33,0,88.93,0,172c0,45.32,18,87.56,49.48,116.47a10.54,10.54,0,0,0,1.68,2.18L248.47,487.55a10.66,10.66,0,0,0,15.07,0l203.88-203.8,2.1-2c1.67-1.57,3.31-3.17,5.16-5.21a10.37,10.37,0,0,0,1.9-2.54C499.44,245.95,512,209.83,512,172,512,88.93,452.19,21.33,378.67,21.33Zm80.16,240.61A9.93,9.93,0,0,0,458,263c-1,1.15-2.09,2.16-3.18,3.19L256,464.93,68.67,278a10.71,10.71,0,0,0-2.48-3.18C37.68,249.91,21.33,212.44,21.33,172c0-71.31,50.24-129.33,112-129.33,61.06,0,113.18,79.65,113.7,80.45,3.94,6.08,14,6.08,17.94,0,.52-.8,52.64-80.45,113.7-80.45,61.76,0,112,58,112,129.33C490.67,205.6,479.35,237.55,458.82,261.95Z" transform="translate(0 -21.33)"/></svg>