<svg id="Icons" xmlns="http://www.w3.org/2000/svg" viewBox="0 0 28 26"><defs><style>.cls-1{fill:none;stroke:#2e2d2d;stroke-linecap:round;stroke-linejoin:round;stroke-width:2px;}</style></defs><title>cabinet</title><path class="cls-1" d="M28,20.6V25a2,2,0,0,1-2,2H6a2,2,0,0,1-2-2V20.6" transform="translate(-2 -3)"/><path class="cls-1" d="M16,24h0a2,2,0,0,1-2-2V19h4v3A2,2,0,0,1,16,24Z" transform="translate(-2 -3)"/><path class="cls-1" d="M14,22H7a4,4,0,0,1-4-4V10A2,2,0,0,1,5,8H27a2,2,0,0,1,2,2v8a4,4,0,0,1-4,4H18" transform="translate(-2 -3)"/><path class="cls-1" d="M20,8H12V6a2,2,0,0,1,2-2h4a2,2,0,0,1,2,2Z" transform="translate(-2 -3)"/><line class="cls-1" x1="5" y1="25" x2="5" y2="24"/><line class="cls-1" x1="23" y1="25" x2="23" y2="24"/></svg>