<svg id="Layer_1" data-name="Layer 1" xmlns="http://www.w3.org/2000/svg" viewBox="0 0 464 464"><defs><style>.cls-1{fill:#f5f5f5;}</style></defs><title>iniciar-sesion</title><g id="Solid"><path class="cls-1" d="M260.52,329.54a24,24,0,0,0,33.94,33.94L385,273A24,24,0,0,0,385,239l-90.51-90.51a24,24,0,0,0-33.94,33.94L310.06,232H48a24,24,0,0,0,0,48H310.06Z" transform="translate(-24 -24)"/><path class="cls-1" d="M448,24H224a40,40,0,0,0-40,40V96a24,24,0,0,0,48,0V72H440V440H232V416a24,24,0,0,0-48,0v32a40,40,0,0,0,40,40H448a40,40,0,0,0,40-40V64A40,40,0,0,0,448,24Z" transform="translate(-24 -24)"/></g></svg>