<svg id="Capa_1" data-name="Capa 1" xmlns="http://www.w3.org/2000/svg" viewBox="0 0 860.63 860.4"><defs><style>.cls-1{fill:#2e2d2d;}</style></defs><title>cont</title><path class="cls-1" d="M515.58,157.92,76.38,597.12l4.6,10.1,27.1,58.8,41.6,22a55,55,0,0,1,22.9,22.9l22,41.6,58.8,27.1,10.1,4.6L702.68,345Z" transform="translate(0 -0.12)"/><path class="cls-1" d="M853.28,159.22,701.48,7.42a25.11,25.11,0,0,0-35.4,0l-129.3,129.3L724,323.92l129.3-129.3A25,25,0,0,0,853.28,159.22Z" transform="translate(0 -0.12)"/><path class="cls-1" d="M46.08,650l-4.3,16.9-41,162.5a25,25,0,0,0,24.1,31.1,27,27,0,0,0,6.2-.8l162.5-41,16.9-4.3,16.9-4.3,13.3-3.4-30.9-14.2L180.28,779a25.45,25.45,0,0,1-11.7-11L150,732.92l-4.3-8a24.84,24.84,0,0,0-10.4-10.4l-8-4.3-35.1-18.6a25,25,0,0,1-11-11.7l-13.5-29.5-14.2-30.9-3.4,13.3Z" transform="translate(0 -0.12)"/></svg>