<svg id="Capa_1" data-name="Capa 1" xmlns="http://www.w3.org/2000/svg" viewBox="0 0 512 490.67"><defs><style>.cls-1{fill:#2e2d2d;}</style></defs><title>dislike</title><path class="cls-1" d="M117.33,10.67h-64A53.41,53.41,0,0,0,0,64V234.67A53.41,53.41,0,0,0,53.33,288h96V21.46A53,53,0,0,0,117.33,10.67Z" transform="translate(0 -10.67)"/><path class="cls-1" d="M512,208a47.75,47.75,0,0,0-26.35-42.67,47.78,47.78,0,0,0-21.36-64,48,48,0,0,0,3.86-32C463.38,47.66,443.05,32,419.82,32H224c-14,0-36,4.42-53.33,12.61V273.26l2.56,1.3,61.44,133.12V480a10.72,10.72,0,0,0,4,8.34c.68.51,16.51,13,38.68,13,24.68,0,64-39.06,64-85.33,0-29.18-10.45-65.52-17-85.33H456.13c28.71,0,53.14-21.25,55.64-48.36a53,53,0,0,0-13.65-40.73A47.31,47.31,0,0,0,512,208Z" transform="translate(0 -10.67)"/></svg>