<svg id="Capa_1" data-name="Capa 1" xmlns="http://www.w3.org/2000/svg" viewBox="0 0 512 490.67"><defs><style>.cls-1{fill:#2e2d2d;}</style></defs><title>like</title><path class="cls-1" d="M512,304a47.4,47.4,0,0,0-13.89-33.58,53,53,0,0,0,13.65-40.73c-2.5-27.12-26.92-48.36-55.64-48.36H324.35c6.53-19.82,17-56.15,17-85.33,0-46.27-39.32-85.33-64-85.33-22.14,0-38,12.48-38.66,13a10.67,10.67,0,0,0-4,8.34v72.34l-61.46,133.1-2.54,1.3v-4.07A10.67,10.67,0,0,0,160,224H53.33A53.38,53.38,0,0,0,0,277.33V448a53.38,53.38,0,0,0,53.33,53.33h64a53.45,53.45,0,0,0,50.2-35.26C185.28,475.2,209.17,480,224,480H419.82c23.23,0,43.56-15.66,48.34-37.25a48.16,48.16,0,0,0-3.84-32.06,47.82,47.82,0,0,0,21.35-64A47.81,47.81,0,0,0,512,304Zm-45,26.33a10.66,10.66,0,0,0-6.1,18.37,26.43,26.43,0,0,1-15.21,45.63,10.66,10.66,0,0,0-6.1,18.37,26.38,26.38,0,0,1,7.72,25.45c-2.62,11.9-14.19,20.52-27.5,20.52H224c-17.32,0-46.38-8.13-56.45-18.22A10.68,10.68,0,0,0,149.33,448a32,32,0,0,1-32,32h-64a32,32,0,0,1-32-32V277.33a32,32,0,0,1,32-32h96V256a10.71,10.71,0,0,0,5.08,9.09,10.9,10.9,0,0,0,10.37.45l21.33-10.67a10.65,10.65,0,0,0,4.91-5.06l64-138.67a10.87,10.87,0,0,0,1-4.48V37.78A45,45,0,0,1,277.33,32C289,32,320,61.06,320,96c0,37.55-20.44,91.67-20.63,92.2a10.65,10.65,0,0,0,10,14.46H456.13c17.79,0,32.9,12.74,34.39,29a31.87,31.87,0,0,1-15.19,30.19,10.68,10.68,0,0,0,.73,18.58,26.41,26.41,0,0,1-9,49.9Z" transform="translate(0 -10.67)"/><path class="cls-1" d="M160,245.33A10.67,10.67,0,0,0,149.33,256V448a10.67,10.67,0,0,0,21.33,0V256A10.67,10.67,0,0,0,160,245.33Z" transform="translate(0 -10.67)"/></svg>