<svg id="Layer_1" data-name="Layer 1" xmlns="http://www.w3.org/2000/svg" viewBox="0 0 512 512"><defs><style>.cls-1{fill:#f9a825;}.cls-2{fill:#ffc107;}.cls-3{fill:#b71c1c;}.cls-4{fill:#d50000;}.cls-5{fill:#2e2d2d;}</style></defs><title>warningMSG</title><path class="cls-1" d="M503.47,256c0,136.67-110.8,247.47-247.47,247.47-7.17,0-14.34,0-21.33-1C98.56,490-1.71,369.62,10.71,233.51a247.48,247.48,0,0,1,224-224c7-1,14.16-1,21.33-1C392.67,8.53,503.47,119.33,503.47,256Z"/><path class="cls-2" d="M460.8,256A247.46,247.46,0,0,1,234.67,502.36C98.56,489.93-1.71,369.54,10.71,233.43a247.48,247.48,0,0,1,224-224A247.47,247.47,0,0,1,460.8,256Z"/><path class="cls-3" d="M314.37,99.33,299.86,295.6a17.06,17.06,0,0,1-17.07,15.79H229.21a17.06,17.06,0,0,1-17.07-15.79L197.63,99.33A17.06,17.06,0,0,1,213.37,81Q214,81,214.7,81h82.77a17.07,17.07,0,0,1,16.95,17.19C314.41,98.56,314.39,98.94,314.37,99.33Z"/><path class="cls-4" d="M290.13,99.33,275.63,295.6a17.06,17.06,0,0,1-17.07,15.79H229.2a17.06,17.06,0,0,1-17.07-15.79L197.63,99.33A17.06,17.06,0,0,1,213.37,81Q214,81,214.7,81h58.37a17.07,17.07,0,0,1,17.12,17C290.18,98.44,290.17,98.88,290.13,99.33Z"/><path class="cls-3" d="M230.4,354h51.2a17.06,17.06,0,0,1,17.07,17.07v42.67a17.06,17.06,0,0,1-17.07,17.07H230.4a17.06,17.06,0,0,1-17.07-17.07V371.11A17.06,17.06,0,0,1,230.4,354Z"/><path class="cls-4" d="M230.4,354H256a17.06,17.06,0,0,1,17.07,17.07v42.67A17.06,17.06,0,0,1,256,430.85H230.4a17.06,17.06,0,0,1-17.07-17.07V371.11A17.06,17.06,0,0,1,230.4,354Z"/><path class="cls-5" d="M256,512C114.61,512,0,397.39,0,256S114.61,0,256,0,512,114.61,512,256,397.39,512,256,512Zm0-494.93C124,17.07,17.07,124,17.07,256S124,494.93,256,494.93,494.93,388,494.93,256,388,17.07,256,17.07Z"/><path class="cls-5" d="M282.8,319.92H229.21a25.6,25.6,0,0,1-25.6-23.72L189.1,99.93a25.6,25.6,0,0,1,23.65-27.41c.65-.05,1.3-.07,1.95-.07h82.69A25.6,25.6,0,0,1,323.05,98c0,.65,0,1.3-.07,1.95L308.48,296.19A25.6,25.6,0,0,1,282.8,319.92ZM214.53,89.51A8.53,8.53,0,0,0,206,98c0,.21,0,.41,0,.61L220.5,294.91a8.54,8.54,0,0,0,8.53,7.94h53.67a8.53,8.53,0,0,0,8.53-7.94L305.75,98.64a8.54,8.54,0,0,0-7.92-9.11,4.85,4.85,0,0,0-.61,0Z"/><path class="cls-5" d="M281.6,439.38H230.4a25.6,25.6,0,0,1-25.6-25.6V371.11a25.6,25.6,0,0,1,25.6-25.6h51.2a25.6,25.6,0,0,1,25.6,25.6v42.67A25.6,25.6,0,0,1,281.6,439.38Zm-51.2-76.8a8.54,8.54,0,0,0-8.53,8.53v42.67a8.54,8.54,0,0,0,8.53,8.53h51.2a8.54,8.54,0,0,0,8.53-8.53V371.11a8.54,8.54,0,0,0-8.53-8.53Z"/></svg>