<svg id="Capa_1" data-name="Capa 1" xmlns="http://www.w3.org/2000/svg" viewBox="0 0 512.01 490.67"><defs><style>.cls-1{fill:#2e2d2d;}</style></defs><title>dislike</title><path class="cls-1" d="M498.13,241.59a47.7,47.7,0,0,0-12.46-76.27,47.82,47.82,0,0,0-21.35-64,48.11,48.11,0,0,0,3.84-32C463.38,47.66,443.05,32,419.82,32H224c-14.83,0-38.72,4.8-56.47,13.93a53.45,53.45,0,0,0-50.2-35.26h-64A53.38,53.38,0,0,0,0,64V234.67A53.38,53.38,0,0,0,53.33,288H160a10.67,10.67,0,0,0,10.67-10.67v-4.08l2.54,1.28,61.46,133.12V480a10.72,10.72,0,0,0,4,8.34c.68.51,16.53,13,38.68,13,24.68,0,64-39.06,64-85.33,0-29.18-10.45-65.52-17-85.33H456.13c28.71,0,53.14-21.25,55.66-48.36A53,53,0,0,0,498.13,241.59Zm-22.8,8.6a31.87,31.87,0,0,1,15.19,30.19c-1.49,16.23-16.6,29-34.39,29H309.33a10.65,10.65,0,0,0-10,14.46c.19.53,20.63,54.66,20.63,92.2,0,34.94-31,64-42.67,64A45.14,45.14,0,0,1,256,474.23V405.34a10.55,10.55,0,0,0-1-4.48L191,262.19a10.65,10.65,0,0,0-4.91-5.06l-21.33-10.67A10.64,10.64,0,0,0,149.33,256v10.67h-96a32,32,0,0,1-32-32V64a32,32,0,0,1,32-32h64a32,32,0,0,1,32,32,10.67,10.67,0,0,0,6.59,9.86,10.78,10.78,0,0,0,11.63-2.3C177.62,61.47,206.68,53.34,224,53.34H419.82c13.31,0,24.88,8.62,27.5,20.56a26.37,26.37,0,0,1-7.72,25.43,10.66,10.66,0,0,0,6.1,18.37,26.45,26.45,0,0,1,15.23,45.63A10.66,10.66,0,0,0,467,181.7a26.41,26.41,0,0,1,9,49.9,10.68,10.68,0,0,0-.72,18.58Z" transform="translate(0 -10.67)"/><path class="cls-1" d="M160,53.34A10.67,10.67,0,0,0,149.33,64V256a10.67,10.67,0,0,0,21.33,0V64A10.67,10.67,0,0,0,160,53.34Z" transform="translate(0 -10.67)"/></svg>